{"title":"Jennifer_Garner_Regis_720p_20110406_TTL","uid":6299879,"size":626396111,"categoryP":"video","categoryS":"hd___tv_shows","magnet":"?xt=urn:btih:bb5a8b4af38dd271055d89f96ae4096ac597d5ab&amp;dn=Jennifer_Garner_Regis_720p_20110406_TTL&amp;tr=udp%3A%2F%2Ftracker.openbittorrent.com%3A80&amp;tr=udp%3A%2F%2Fopen.demonii.com%3A1337&amp;tr=udp%3A%2F%2Ftracker.coppersurfer.tk%3A6969&amp;tr=udp%3A%2F%2Fexodus.desync.com%3A6969","seeders":0,"leechers":0,"uploader":"thetorrentlord","files":6,"time":1302117227,"description":"Just the interviews. Enjoy and please share.\t\t\t\t\t\t\t\t\t\t\t\t\t\t\t\t\t\t\t\t\t\t\t\t\t\t\t\t\t\t\t\t\t\t\t\t\t\t\t\t\t\t******************************************************************************************************\t\t\t\t\t\t\t\t\t\t\t\t\t\t                                                                      FILE LIST:\t\t\t\t\t\t\t\t\t\t\t\t\t\t\t\t\t\t\t\tRegis_Caroline_Kennedy_720p_20110406_TTL.avi\t\t\t\t\t\t\t\t\t\t\t\t\t\t\t\t\t\t\t\t\t                                                                Regis_Jennifer_Garner_720p_20110406_TTL.avi\t\t\t\t\t\t\t\t\t\t\t\t\t\t\t\t\t\t\t\t\t                Regis_Jesse_Tyler_Ferguson_720p_20110406_TTL.avi\t\t\t\t\t    \t\t\t\t\t\t\t\t\t\t\t\t\t\t\t******************************************************************************************************\t\t\t\t\t\t\t\t\t\t\t\t\t\t\t\t\t\t\t\t\t\t\t\t\t\t\t\t\t\t\t\t\t\t\t\t\t\t\t\tRegis_Jennifer_Garner_720p_20110406_TTL.avi\nFormat                           : AVI\nFormat/Info                      : Audio Video Interleave\nFile size                        : 231 MiB\nDuration                         : 14mn 2s\nOverall bit rate                 : 2 296 Kbps\nMovie name                       : Regis_Jennifer Garner_720p_20110406_TTL.mpg\nDirector                         : created.with.SUPER(C).v2010.bld.37\nWriting application              : SUPER(C)   \n\nVideo\nID                               : 0\nFormat                           : MPEG-4 Visual\nFormat profile                   : Simple@L3\nFormat settings, BVOP            : No\nFormat settings, QPel            : No\nFormat settings, GMC             : No warppoints\nFormat settings, Matrix          : Default (H.263)\nCodec ID                         : XVID\nCodec ID/Hint                    : XviD\nDuration                         : 7mn 1s\nBit rate                         : 4 467 Kbps\nWidth                            : 1 280 pixels\nHeight                           : 720 pixels\nDisplay aspect ratio             : 16:9\nFrame rate                       : 29.970 fps\nColor space                      : YUV\nChroma subsampling               : 4:2:0\nBit depth                        : 8 bits\nScan type                        : Progressive\nBits/(Pixel*Frame)               : 0.162\nStream size                      : 224 MiB (97%)\nWriting library                  : XviD 1.1.2 (UTC 2006-11-01)\n\nAudio\nID                               : 1\nFormat                           : MPEG Audio\nFormat version                   : Version 2\nFormat profile                   : Layer 3\nMode                             : Joint stereo\nMode extension                   : MS Stereo\nCodec ID                         : 55\nCodec ID/Hint                    : MP3\nDuration                         : 14mn 2s\nBit rate mode                    : Constant\nBit rate                         : 112 Kbps\nChannel(s)                       : 2 channels\nSampling rate                    : 22.05 KHz\nStream size                      : 5.63 MiB (2%)\nAlignment                        : Aligned on interleaves\nInterleave, duration             : 26 ms (0.78 video frame)\nInterleave, preload duration     : 26 ms\nWriting library                  : LAME3.98\n\n","torrent":{"xt":"urn:btih:bb5a8b4af38dd271055d89f96ae4096ac597d5ab","amp;dn":"Jennifer_Garner_Regis_720p_20110406_TTL","amp;tr":["udp%3A%2F%2Ftracker.openbittorrent.com%3A80","udp%3A%2F%2Fopen.demonii.com%3A1337","udp%3A%2F%2Ftracker.coppersurfer.tk%3A6969","udp%3A%2F%2Fexodus.desync.com%3A6969"],"infoHash":"bb5a8b4af38dd271055d89f96ae4096ac597d5ab","infoHashBuffer":{"type":"Buffer","data":[187,90,139,74,243,141,210,113,5,93,137,249,106,228,9,106,197,151,213,171]},"announce":[],"urlList":[]}}